<?xml version="1.0" encoding="utf-8"?>
<svg version="1.0" xmlns="http://www.w3.org/2000/svg" width="200.000000pt" height="200.000000pt" viewBox="0 0 200.000000 200.000000" preserveAspectRatio="xMidYMid meet">
  <g transform="translate(0.000000,200.000000) scale(0.100000,-0.100000)" fill="#000000" stroke="none">
    <path d="M428 1658 l-3 -73 -82 -3 -83 -3 0 -69 0 -70 -80 0 -80 0 0 -220 0 -220 80 0 79 0 3 -72 3 -73 83 -3 82 -3 0 -69 0 -70 80 0 80 0 0 -75 0 -75 80 0 80 0 0 -70 0 -70 85 0 85 0 0 -75 0 -75 80 0 80 0 0 75 0 75 85 0 85 0 0 70 0 70 80 0 80 0 0 75 0 75 80 0 80 0 0 70 0 69 83 3 82 3 3 73 3 72 79 0 80 0 0 220 0 220 -80 0 -80 0 0 70 0 69 -82 3 -83 3 -3 73 -3 72 -159 0 -159 0 -3 -72 -3 -73 -82 -3 -83 -3 0 -69 0 -70 -80 0 -80 0 0 70 0 69 -82 3 -83 3 -3 73 -3 72 -159 0 -159 0 -3 -72z" style="fill: rgb(255, 255, 255);"/>
  </g>
</svg>