<?xml version="1.0" encoding="UTF-8"?>
<svg version="1.1" xmlns="http://www.w3.org/2000/svg" width="250" height="250">
<path d="M0 0 C13.53 0 27.06 0 41 0 C41.495 8.91 41.495 8.91 42 18 C48.6 18.33 55.2 18.66 62 19 C62 24.94 62 30.88 62 37 C68.6 37 75.2 37 82 37 C82 31.06 82 25.12 82 19 C91.9 18.505 91.9 18.505 102 18 C102.33 12.06 102.66 6.12 103 0 C116.53 0 130.06 0 144 0 C144 5.94 144 11.88 144 18 C150.93 18.33 157.86 18.66 165 19 C165 24.94 165 30.88 165 37 C171.6 37 178.2 37 185 37 C185 55.15 185 73.3 185 92 C178.4 92 171.8 92 165 92 C165.03938171 96.75640658 165.03938171 96.75640658 165.09008789 101.51269531 C165.10436323 104.93693446 164.83818662 107.64725351 164 111 C157.4 111 150.8 111 144 111 C144 116.94 144 122.88 144 129 C137.4 129 130.8 129 124 129 C124 134.94 124 140.88 124 147 C117.4 147 110.8 147 104 147 C104 152.94 104 158.88 104 165 C96.74 165 89.48 165 82 165 C82 171.27 82 177.54 82 184 C75.4 184 68.8 184 62 184 C62 177.73 62 171.46 62 165 C54.74 165 47.48 165 40 165 C40 159.06 40 153.12 40 147 C33.4 147 26.8 147 20 147 C20 141.06 20 135.12 20 129 C13.4 129 6.8 129 0 129 C0 123.06 0 117.12 0 111 C-6.6 111 -13.2 111 -20 111 C-21.00942188 106.96231248 -21.11263915 103.36229751 -21.0625 99.25 C-21.041875 96.8575 -21.02125 94.465 -21 92 C-27.6 92 -34.2 92 -41 92 C-41 73.85 -41 55.7 -41 37 C-34.4 37 -27.8 37 -21 37 C-21 31.06 -21 25.12 -21 19 C-10.605 18.505 -10.605 18.505 0 18 C0 12.06 0 6.12 0 0 Z " fill="#FF077E" transform="translate(53,33)"/>
</svg>
